<mxfile host="Electron" agent="Mozilla/5.0 (Windows NT 10.0; Win64; x64) AppleWebKit/537.36 (KHTML, like Gecko) draw.io/28.0.4 Chrome/138.0.7204.97 Electron/37.2.1 Safari/537.36" version="28.0.4">
  <diagram name="Page-1" id="1SfnLP5BDwFfhGrU8PW_">
    <mxGraphModel dx="872" dy="537" grid="1" gridSize="10" guides="1" tooltips="1" connect="1" arrows="1" fold="1" page="1" pageScale="1" pageWidth="1169" pageHeight="827" math="0" shadow="0">
      <root>
        <mxCell id="0" />
        <mxCell id="1" parent="0" />
        <mxCell id="T_bFct7Ujst5taXHkCEE-1" value="&lt;font style=&quot;&quot;&gt;&lt;span style=&quot;font-weight: bold; font-size: 36px;&quot;&gt;Data Flow Diagram &lt;/span&gt;&lt;font style=&quot;font-size: 20px;&quot;&gt;(data lineage)&lt;/font&gt;&lt;/font&gt;" style="text;html=1;align=center;verticalAlign=middle;whiteSpace=wrap;rounded=0;" parent="1" vertex="1">
          <mxGeometry x="30" y="20" width="530" height="30" as="geometry" />
        </mxCell>
        <mxCell id="T_bFct7Ujst5taXHkCEE-4" value="" style="rounded=0;whiteSpace=wrap;html=1;dashed=1;fillColor=none;strokeColor=#7E7E7E;" parent="1" vertex="1">
          <mxGeometry x="60" y="140" width="160" height="630" as="geometry" />
        </mxCell>
        <mxCell id="T_bFct7Ujst5taXHkCEE-5" value="&lt;font style=&quot;font-size: 24px;&quot;&gt;Sources&lt;/font&gt;" style="rounded=1;whiteSpace=wrap;html=1;strokeColor=none;" parent="1" vertex="1">
          <mxGeometry x="80" y="110" width="120" height="60" as="geometry" />
        </mxCell>
        <mxCell id="T_bFct7Ujst5taXHkCEE-16" style="edgeStyle=orthogonalEdgeStyle;rounded=0;orthogonalLoop=1;jettySize=auto;html=1;" parent="1" source="T_bFct7Ujst5taXHkCEE-6" target="T_bFct7Ujst5taXHkCEE-15" edge="1">
          <mxGeometry relative="1" as="geometry" />
        </mxCell>
        <mxCell id="T_bFct7Ujst5taXHkCEE-17" style="edgeStyle=orthogonalEdgeStyle;rounded=0;orthogonalLoop=1;jettySize=auto;html=1;entryX=0;entryY=0.5;entryDx=0;entryDy=0;" parent="1" source="T_bFct7Ujst5taXHkCEE-6" target="T_bFct7Ujst5taXHkCEE-13" edge="1">
          <mxGeometry relative="1" as="geometry" />
        </mxCell>
        <mxCell id="T_bFct7Ujst5taXHkCEE-18" style="edgeStyle=orthogonalEdgeStyle;rounded=0;orthogonalLoop=1;jettySize=auto;html=1;entryX=0;entryY=0.5;entryDx=0;entryDy=0;" parent="1" source="T_bFct7Ujst5taXHkCEE-6" target="T_bFct7Ujst5taXHkCEE-14" edge="1">
          <mxGeometry relative="1" as="geometry" />
        </mxCell>
        <mxCell id="T_bFct7Ujst5taXHkCEE-6" value="&lt;font&gt;&lt;b&gt;CRM&lt;/b&gt;&lt;/font&gt;" style="image;aspect=fixed;html=1;points=[];align=center;fontSize=20;image=img/lib/azure2/general/Folder_Blank.svg;" parent="1" vertex="1">
          <mxGeometry x="105.5" y="320" width="69" height="56.00000000000001" as="geometry" />
        </mxCell>
        <mxCell id="T_bFct7Ujst5taXHkCEE-22" style="edgeStyle=orthogonalEdgeStyle;rounded=0;orthogonalLoop=1;jettySize=auto;html=1;entryX=0;entryY=0.5;entryDx=0;entryDy=0;" parent="1" source="T_bFct7Ujst5taXHkCEE-7" target="T_bFct7Ujst5taXHkCEE-21" edge="1">
          <mxGeometry relative="1" as="geometry" />
        </mxCell>
        <mxCell id="T_bFct7Ujst5taXHkCEE-23" style="edgeStyle=orthogonalEdgeStyle;rounded=0;orthogonalLoop=1;jettySize=auto;html=1;entryX=0;entryY=0.5;entryDx=0;entryDy=0;" parent="1" source="T_bFct7Ujst5taXHkCEE-7" target="T_bFct7Ujst5taXHkCEE-20" edge="1">
          <mxGeometry relative="1" as="geometry" />
        </mxCell>
        <mxCell id="T_bFct7Ujst5taXHkCEE-24" style="edgeStyle=orthogonalEdgeStyle;rounded=0;orthogonalLoop=1;jettySize=auto;html=1;entryX=0;entryY=0.5;entryDx=0;entryDy=0;" parent="1" source="T_bFct7Ujst5taXHkCEE-7" target="T_bFct7Ujst5taXHkCEE-19" edge="1">
          <mxGeometry relative="1" as="geometry" />
        </mxCell>
        <mxCell id="T_bFct7Ujst5taXHkCEE-7" value="ERP" style="image;aspect=fixed;html=1;points=[];align=center;fontSize=20;image=img/lib/azure2/general/Folder_Blank.svg;fontStyle=1" parent="1" vertex="1">
          <mxGeometry x="105.5" y="530" width="69" height="56.00000000000001" as="geometry" />
        </mxCell>
        <mxCell id="T_bFct7Ujst5taXHkCEE-10" value="" style="rounded=1;whiteSpace=wrap;html=1;dashed=1;fillColor=#ffe6cc;strokeColor=#d79b00;fillStyle=hatch;" parent="1" vertex="1">
          <mxGeometry x="290" y="180" width="160" height="590" as="geometry" />
        </mxCell>
        <mxCell id="T_bFct7Ujst5taXHkCEE-11" value="&lt;font&gt;&lt;b&gt;Bronze Layer&lt;/b&gt;&lt;/font&gt;" style="rounded=1;whiteSpace=wrap;html=1;fontSize=20;fillColor=#ffe6cc;strokeColor=#d79b00;" parent="1" vertex="1">
          <mxGeometry x="290" y="110" width="160" height="60" as="geometry" />
        </mxCell>
        <mxCell id="EeFVkPDyGuC6I8mIWm7C-9" style="edgeStyle=orthogonalEdgeStyle;rounded=0;orthogonalLoop=1;jettySize=auto;html=1;entryX=0;entryY=0.5;entryDx=0;entryDy=0;" parent="1" source="T_bFct7Ujst5taXHkCEE-13" target="EeFVkPDyGuC6I8mIWm7C-3" edge="1">
          <mxGeometry relative="1" as="geometry" />
        </mxCell>
        <mxCell id="T_bFct7Ujst5taXHkCEE-13" value="&lt;font style=&quot;font-size: 16px;&quot;&gt;&lt;span&gt;crm_cust_info&lt;/span&gt;&lt;/font&gt;" style="rounded=1;whiteSpace=wrap;html=1;fontSize=20;fillColor=#ffe6cc;strokeColor=#d79b00;fontStyle=0" parent="1" vertex="1">
          <mxGeometry x="300" y="263" width="140" height="40" as="geometry" />
        </mxCell>
        <mxCell id="EeFVkPDyGuC6I8mIWm7C-11" style="edgeStyle=orthogonalEdgeStyle;rounded=0;orthogonalLoop=1;jettySize=auto;html=1;entryX=0;entryY=0.5;entryDx=0;entryDy=0;" parent="1" source="T_bFct7Ujst5taXHkCEE-14" target="EeFVkPDyGuC6I8mIWm7C-4" edge="1">
          <mxGeometry relative="1" as="geometry" />
        </mxCell>
        <mxCell id="T_bFct7Ujst5taXHkCEE-14" value="&lt;font style=&quot;font-size: 16px;&quot;&gt;&lt;span&gt;crm_sales_details&lt;/span&gt;&lt;/font&gt;" style="rounded=1;whiteSpace=wrap;html=1;fontSize=20;fillColor=#ffe6cc;strokeColor=#d79b00;fontStyle=0" parent="1" vertex="1">
          <mxGeometry x="300" y="393" width="140" height="40" as="geometry" />
        </mxCell>
        <mxCell id="EeFVkPDyGuC6I8mIWm7C-10" style="edgeStyle=orthogonalEdgeStyle;rounded=0;orthogonalLoop=1;jettySize=auto;html=1;entryX=0;entryY=0.5;entryDx=0;entryDy=0;" parent="1" source="T_bFct7Ujst5taXHkCEE-15" target="EeFVkPDyGuC6I8mIWm7C-5" edge="1">
          <mxGeometry relative="1" as="geometry" />
        </mxCell>
        <mxCell id="T_bFct7Ujst5taXHkCEE-15" value="&lt;font style=&quot;font-size: 16px;&quot;&gt;&lt;span&gt;crm_prd_info&lt;/span&gt;&lt;/font&gt;" style="rounded=1;whiteSpace=wrap;html=1;fontSize=20;fillColor=#ffe6cc;strokeColor=#d79b00;fontStyle=0" parent="1" vertex="1">
          <mxGeometry x="300" y="327" width="140" height="40" as="geometry" />
        </mxCell>
        <mxCell id="EeFVkPDyGuC6I8mIWm7C-12" style="edgeStyle=orthogonalEdgeStyle;rounded=0;orthogonalLoop=1;jettySize=auto;html=1;entryX=0;entryY=0.5;entryDx=0;entryDy=0;" parent="1" source="T_bFct7Ujst5taXHkCEE-19" target="EeFVkPDyGuC6I8mIWm7C-6" edge="1">
          <mxGeometry relative="1" as="geometry" />
        </mxCell>
        <mxCell id="T_bFct7Ujst5taXHkCEE-19" value="&lt;span style=&quot;font-size: 16px;&quot;&gt;erp_cust_az12&lt;/span&gt;" style="rounded=1;whiteSpace=wrap;html=1;fontSize=20;fillColor=#ffe6cc;strokeColor=#d79b00;fontStyle=0" parent="1" vertex="1">
          <mxGeometry x="300" y="473" width="140" height="40" as="geometry" />
        </mxCell>
        <mxCell id="EeFVkPDyGuC6I8mIWm7C-14" style="edgeStyle=orthogonalEdgeStyle;rounded=0;orthogonalLoop=1;jettySize=auto;html=1;" parent="1" source="T_bFct7Ujst5taXHkCEE-20" target="EeFVkPDyGuC6I8mIWm7C-7" edge="1">
          <mxGeometry relative="1" as="geometry" />
        </mxCell>
        <mxCell id="T_bFct7Ujst5taXHkCEE-20" value="&lt;font style=&quot;font-size: 16px;&quot;&gt;&lt;span&gt;erp_px_cat_g1v2&lt;/span&gt;&lt;/font&gt;" style="rounded=1;whiteSpace=wrap;html=1;fontSize=20;fillColor=#ffe6cc;strokeColor=#d79b00;fontStyle=0" parent="1" vertex="1">
          <mxGeometry x="300" y="603" width="140" height="40" as="geometry" />
        </mxCell>
        <mxCell id="EeFVkPDyGuC6I8mIWm7C-13" style="edgeStyle=orthogonalEdgeStyle;rounded=0;orthogonalLoop=1;jettySize=auto;html=1;" parent="1" source="T_bFct7Ujst5taXHkCEE-21" target="EeFVkPDyGuC6I8mIWm7C-8" edge="1">
          <mxGeometry relative="1" as="geometry" />
        </mxCell>
        <mxCell id="T_bFct7Ujst5taXHkCEE-21" value="&lt;span style=&quot;font-size: 16px;&quot;&gt;erp_loc_a101&lt;/span&gt;" style="rounded=1;whiteSpace=wrap;html=1;fontSize=20;fillColor=#ffe6cc;strokeColor=#d79b00;fontStyle=0" parent="1" vertex="1">
          <mxGeometry x="300" y="537" width="140" height="40" as="geometry" />
        </mxCell>
        <mxCell id="EeFVkPDyGuC6I8mIWm7C-1" value="" style="rounded=1;whiteSpace=wrap;html=1;dashed=1;fillColor=#f5f5f5;strokeColor=#666666;fillStyle=hatch;fontColor=#333333;" parent="1" vertex="1">
          <mxGeometry x="505" y="180" width="160" height="590" as="geometry" />
        </mxCell>
        <mxCell id="EeFVkPDyGuC6I8mIWm7C-2" value="&lt;font&gt;&lt;b&gt;Silver Layer&lt;/b&gt;&lt;/font&gt;" style="rounded=1;whiteSpace=wrap;html=1;fontSize=20;fillColor=#f5f5f5;strokeColor=#666666;fontColor=#333333;" parent="1" vertex="1">
          <mxGeometry x="505" y="110" width="160" height="60" as="geometry" />
        </mxCell>
        <mxCell id="EeFVkPDyGuC6I8mIWm7C-3" value="&lt;font style=&quot;font-size: 16px;&quot;&gt;&lt;span&gt;crm_cust_info&lt;/span&gt;&lt;/font&gt;" style="rounded=1;whiteSpace=wrap;html=1;fontSize=20;fillColor=#f5f5f5;strokeColor=#666666;fontStyle=0;fontColor=#333333;" parent="1" vertex="1">
          <mxGeometry x="515" y="263" width="140" height="40" as="geometry" />
        </mxCell>
        <mxCell id="EeFVkPDyGuC6I8mIWm7C-4" value="&lt;font style=&quot;font-size: 16px;&quot;&gt;&lt;span&gt;crm_sales_details&lt;/span&gt;&lt;/font&gt;" style="rounded=1;whiteSpace=wrap;html=1;fontSize=20;fillColor=#f5f5f5;strokeColor=#666666;fontStyle=0;fontColor=#333333;" parent="1" vertex="1">
          <mxGeometry x="515" y="393" width="140" height="40" as="geometry" />
        </mxCell>
        <mxCell id="EeFVkPDyGuC6I8mIWm7C-5" value="&lt;font style=&quot;font-size: 16px;&quot;&gt;&lt;span&gt;crm_prd_info&lt;/span&gt;&lt;/font&gt;" style="rounded=1;whiteSpace=wrap;html=1;fontSize=20;fillColor=#f5f5f5;strokeColor=#666666;fontStyle=0;fontColor=#333333;" parent="1" vertex="1">
          <mxGeometry x="515" y="327" width="140" height="40" as="geometry" />
        </mxCell>
        <mxCell id="EeFVkPDyGuC6I8mIWm7C-6" value="&lt;span style=&quot;font-size: 16px;&quot;&gt;erp_cust_az12&lt;/span&gt;" style="rounded=1;whiteSpace=wrap;html=1;fontSize=20;fillColor=#f5f5f5;strokeColor=#666666;fontStyle=0;fontColor=#333333;" parent="1" vertex="1">
          <mxGeometry x="515" y="473" width="140" height="40" as="geometry" />
        </mxCell>
        <mxCell id="EeFVkPDyGuC6I8mIWm7C-7" value="&lt;font style=&quot;font-size: 16px;&quot;&gt;&lt;span&gt;erp_px_cat_g1v2&lt;/span&gt;&lt;/font&gt;" style="rounded=1;whiteSpace=wrap;html=1;fontSize=20;fillColor=#f5f5f5;strokeColor=#666666;fontStyle=0;fontColor=#333333;" parent="1" vertex="1">
          <mxGeometry x="515" y="603" width="140" height="40" as="geometry" />
        </mxCell>
        <mxCell id="EeFVkPDyGuC6I8mIWm7C-8" value="&lt;span style=&quot;font-size: 16px;&quot;&gt;erp_loc_a101&lt;/span&gt;" style="rounded=1;whiteSpace=wrap;html=1;fontSize=20;fillColor=#f5f5f5;strokeColor=#666666;fontStyle=0;fontColor=#333333;" parent="1" vertex="1">
          <mxGeometry x="515" y="537" width="140" height="40" as="geometry" />
        </mxCell>
        <mxCell id="zLmzhuJ-2_u4dBR7O-FH-1" value="" style="rounded=1;whiteSpace=wrap;html=1;dashed=1;fillColor=#fff2cc;strokeColor=#d6b656;fillStyle=hatch;" parent="1" vertex="1">
          <mxGeometry x="710" y="180" width="160" height="590" as="geometry" />
        </mxCell>
        <mxCell id="zLmzhuJ-2_u4dBR7O-FH-2" value="&lt;font&gt;&lt;b&gt;Gold Layer&lt;/b&gt;&lt;/font&gt;" style="rounded=1;whiteSpace=wrap;html=1;fontSize=20;fillColor=#fff2cc;strokeColor=#d6b656;" parent="1" vertex="1">
          <mxGeometry x="710" y="110" width="160" height="60" as="geometry" />
        </mxCell>
        <mxCell id="zLmzhuJ-2_u4dBR7O-FH-3" value="&lt;span style=&quot;font-size: 16px;&quot;&gt;fact_sales&lt;/span&gt;" style="rounded=1;whiteSpace=wrap;html=1;fontSize=20;fillColor=#fff2cc;strokeColor=#d6b656;fontStyle=0;" parent="1" vertex="1">
          <mxGeometry x="720" y="370" width="140" height="40" as="geometry" />
        </mxCell>
        <mxCell id="zLmzhuJ-2_u4dBR7O-FH-4" value="&lt;font style=&quot;font-size: 16px;&quot;&gt;&lt;span&gt;dim_products&lt;/span&gt;&lt;/font&gt;" style="rounded=1;whiteSpace=wrap;html=1;fontSize=20;fillColor=#fff2cc;strokeColor=#d6b656;fontStyle=0;" parent="1" vertex="1">
          <mxGeometry x="720" y="500" width="140" height="40" as="geometry" />
        </mxCell>
        <mxCell id="zLmzhuJ-2_u4dBR7O-FH-5" value="&lt;span style=&quot;font-size: 16px;&quot;&gt;dim_customers&lt;/span&gt;" style="rounded=1;whiteSpace=wrap;html=1;fontSize=20;fillColor=#fff2cc;strokeColor=#d6b656;fontStyle=0;" parent="1" vertex="1">
          <mxGeometry x="720" y="434" width="140" height="40" as="geometry" />
        </mxCell>
        <mxCell id="zLmzhuJ-2_u4dBR7O-FH-11" value="" style="endArrow=classic;html=1;rounded=0;exitX=1;exitY=0.5;exitDx=0;exitDy=0;entryX=0;entryY=0.5;entryDx=0;entryDy=0;jumpStyle=gap;" parent="1" source="EeFVkPDyGuC6I8mIWm7C-4" target="zLmzhuJ-2_u4dBR7O-FH-3" edge="1">
          <mxGeometry width="50" height="50" relative="1" as="geometry">
            <mxPoint x="730" y="520" as="sourcePoint" />
            <mxPoint x="780" y="470" as="targetPoint" />
          </mxGeometry>
        </mxCell>
        <mxCell id="zLmzhuJ-2_u4dBR7O-FH-12" value="" style="endArrow=classic;html=1;rounded=0;exitX=1;exitY=0.5;exitDx=0;exitDy=0;entryX=0;entryY=0.5;entryDx=0;entryDy=0;jumpStyle=gap;" parent="1" source="EeFVkPDyGuC6I8mIWm7C-3" target="zLmzhuJ-2_u4dBR7O-FH-5" edge="1">
          <mxGeometry width="50" height="50" relative="1" as="geometry">
            <mxPoint x="940" y="413" as="sourcePoint" />
            <mxPoint x="1005" y="390" as="targetPoint" />
          </mxGeometry>
        </mxCell>
        <mxCell id="zLmzhuJ-2_u4dBR7O-FH-13" value="" style="endArrow=classic;html=1;rounded=0;exitX=1;exitY=0.5;exitDx=0;exitDy=0;entryX=0;entryY=0.5;entryDx=0;entryDy=0;jumpStyle=gap;" parent="1" source="EeFVkPDyGuC6I8mIWm7C-5" target="zLmzhuJ-2_u4dBR7O-FH-4" edge="1">
          <mxGeometry width="50" height="50" relative="1" as="geometry">
            <mxPoint x="800" y="390" as="sourcePoint" />
            <mxPoint x="865" y="561" as="targetPoint" />
          </mxGeometry>
        </mxCell>
        <mxCell id="zLmzhuJ-2_u4dBR7O-FH-14" value="" style="endArrow=classic;html=1;rounded=0;exitX=1;exitY=0.5;exitDx=0;exitDy=0;entryX=0;entryY=0.5;entryDx=0;entryDy=0;jumpStyle=gap;" parent="1" source="EeFVkPDyGuC6I8mIWm7C-6" target="zLmzhuJ-2_u4dBR7O-FH-5" edge="1">
          <mxGeometry width="50" height="50" relative="1" as="geometry">
            <mxPoint x="740" y="470" as="sourcePoint" />
            <mxPoint x="720" y="450" as="targetPoint" />
          </mxGeometry>
        </mxCell>
        <mxCell id="zLmzhuJ-2_u4dBR7O-FH-15" value="" style="endArrow=classic;html=1;rounded=0;exitX=1;exitY=0.5;exitDx=0;exitDy=0;entryX=0;entryY=0.5;entryDx=0;entryDy=0;jumpStyle=gap;" parent="1" source="EeFVkPDyGuC6I8mIWm7C-8" target="zLmzhuJ-2_u4dBR7O-FH-5" edge="1">
          <mxGeometry width="50" height="50" relative="1" as="geometry">
            <mxPoint x="680" y="529" as="sourcePoint" />
            <mxPoint x="745" y="490" as="targetPoint" />
          </mxGeometry>
        </mxCell>
        <mxCell id="zLmzhuJ-2_u4dBR7O-FH-16" value="" style="endArrow=classic;html=1;rounded=0;exitX=1;exitY=0.5;exitDx=0;exitDy=0;entryX=0;entryY=0.5;entryDx=0;entryDy=0;jumpStyle=gap;" parent="1" source="EeFVkPDyGuC6I8mIWm7C-7" target="zLmzhuJ-2_u4dBR7O-FH-4" edge="1">
          <mxGeometry width="50" height="50" relative="1" as="geometry">
            <mxPoint x="800" y="633" as="sourcePoint" />
            <mxPoint x="865" y="530" as="targetPoint" />
          </mxGeometry>
        </mxCell>
      </root>
    </mxGraphModel>
  </diagram>
</mxfile>
